<svg xmlns="http://www.w3.org/2000/svg" width="24" height="24" fill="none"><clipPath id="a"><path d="M0 0h24v24H0z"/></clipPath><g clip-path="url('#a')"><path fill="#fff" d="M8.027 19.02c0 .095-.11.17-.251.17-.16.015-.271-.061-.271-.17 0-.096.111-.172.251-.172.146-.014.271.062.271.172m-1.504-.214c-.034.095.062.204.208.233.125.047.27 0 .3-.095.029-.096-.063-.205-.208-.248-.126-.033-.267.014-.3.11m2.138-.081c-.14.033-.237.123-.222.233.014.095.14.157.285.123.14-.033.237-.123.223-.218-.015-.09-.145-.153-.286-.138M11.845.5C5.134.5 0 5.508 0 12.105A11.94 11.94 0 0 0 8.202 23.48c.619.109.837-.267.837-.576 0-.295-.015-1.921-.015-2.92 0 0-3.387.713-4.098-1.417 0 0-.552-1.384-1.345-1.74 0 0-1.108-.748.077-.733 0 0 1.205.095 1.868 1.227 1.06 1.836 2.835 1.308 3.527.994.112-.761.426-1.29.774-1.603-2.704-.295-5.433-.68-5.433-5.255 0-1.308.367-1.965 1.141-2.802-.125-.309-.537-1.583.126-3.229C6.673 5.118 9 6.711 9 6.711a11.6 11.6 0 0 1 3.039-.404c1.03 0 2.07.138 3.038.404 0 0 2.328-1.598 3.34-1.284.662 1.65.25 2.92.125 3.23.774.841 1.248 1.498 1.248 2.8 0 4.59-2.85 4.956-5.554 5.256.445.376.822 1.089.822 2.207 0 1.602-.014 3.586-.014 3.976 0 .309.222.685.837.575C20.719 21.892 24 17.38 24 12.105 24 5.508 18.557.5 11.845.5M4.703 16.903c-.063.048-.048.157.034.248.078.076.189.109.252.047.063-.047.048-.157-.034-.247-.078-.076-.189-.11-.252-.048m-.522-.385c-.034.062.014.138.11.185.078.048.175.034.209-.033.034-.062-.015-.138-.111-.185-.097-.029-.174-.015-.208.033m1.567 1.693c-.077.062-.048.205.063.295.112.11.252.124.315.048.063-.062.034-.205-.063-.295-.107-.11-.252-.124-.315-.048m-.551-.7c-.078.049-.078.172 0 .282.077.109.208.157.27.109.078-.062.078-.186 0-.295-.067-.11-.193-.157-.27-.095"/></g></svg>