<svg xmlns="http://www.w3.org/2000/svg" width="24" height="24" fill="none"><path fill="#e24329" d="m12 23.105 4.42-13.6H7.585z"/><path fill="#fca326" d="M1.391 9.505.045 13.637c-.122.375.01.79.331 1.023L12 23.105z"/><path fill="#e24329" d="M1.391 9.505h6.193L4.92 1.315c-.137-.42-.731-.42-.872 0z"/><path fill="#fca326" d="m22.614 9.505 1.341 4.132a.92.92 0 0 1-.331 1.023l-11.625 8.445z"/><path fill="#e24329" d="M22.614 9.505H16.42l2.66-8.19c.136-.42.73-.42.872 0z"/><g fill="#fc6d26"><path d="m12 23.105 4.42-13.6h6.193zM12 23.105 1.39 9.505h6.193z"/></g></svg>