<svg xmlns="http://www.w3.org/2000/svg" width="24" height="24" fill="none"><path fill="#fff" d="m9.704 14.485.88 2.391s-1.485 1.457-4.59 1.457C2.143 18.333 0 16.08 0 11.9 0 7.557 2.144 5 6.186 5c3.656 0 5.498 1.32 6.652 4.893l.908 2.75c.66 2.006 1.814 3.463 4.59 3.463 1.87 0 2.86-.412 2.86-1.429 0-.797-.467-1.375-1.87-1.705l-1.87-.44c-2.28-.55-3.188-1.731-3.188-3.6 0-2.997 2.42-3.932 4.894-3.932 2.804 0 4.508 1.017 4.728 3.491l-2.75.33c-.11-1.182-.824-1.677-2.143-1.677-1.21 0-1.952.55-1.952 1.485 0 .825.357 1.32 1.567 1.594l1.759.385c2.364.55 3.629 1.705 3.629 3.932 0 2.749-2.31 3.793-5.718 3.793-4.756 0-6.406-2.144-7.285-4.81l-.88-2.75C9.457 8.766 8.687 7.2 6.268 7.2c-1.677 0-3.381 1.21-3.381 4.591 0 2.64 1.347 4.29 3.244 4.29 2.144 0 3.573-1.595 3.573-1.595"/></svg>