<svg xmlns="http://www.w3.org/2000/svg" width="24" height="24" fill="none"><path fill="#ff8000" d="M0 11.571a4.571 4.571 0 1 1 9.143 0 4.571 4.571 0 0 1-9.143 0"/><path fill="#00e054" d="M7.429 11.571a4.571 4.571 0 1 1 9.142 0 4.571 4.571 0 0 1-9.142 0"/><path fill="#fff" d="M8.286 14.237c.54-.75.857-1.67.857-2.666s-.318-1.915-.857-2.665c-.54.75-.857 1.67-.857 2.665s.317 1.916.857 2.666"/><path fill="#40bcf4" d="M14.857 11.571a4.571 4.571 0 1 1 9.143 0 4.571 4.571 0 0 1-9.143 0"/><path fill="#fff" d="M15.714 14.237c.54-.75.857-1.67.857-2.666s-.317-1.915-.857-2.665c-.54.75-.857 1.67-.857 2.665s.318 1.916.857 2.666"/></svg>