<svg xmlns="http://www.w3.org/2000/svg"><defs><font id="OpenSans" horiz-adv-x="1169"><font-face alphabetic="0" ascent="2189" descent="-600" font-family="Open Sans ExtraBold" units-per-em="2048"/><glyph glyph-name="space" horiz-adv-x="532"/><glyph d="M463 516H133l-51 946h432zM86 166q0 106 62 149t149 43q85 0 146-43t61-149q0-101-61-146T297-25q-86 0-148 45T86 166" glyph-name="exclam" horiz-adv-x="594" unicode="!"/><glyph d="m477 1462-41-528H162l-41 528zm475 0-41-528H637l-41 528z" glyph-name="quotedbl" horiz-adv-x="1073" unicode="&quot;"/><glyph d="m1042 813-30-168h243V391H965L891 0H623l73 391H528L457 0H190l72 391H37v254h274l31 168H104v260h287l72 389h268l-74-389h166l72 389h268l-73-389h229V813zM578 645h165l31 168H608z" glyph-name="numbersign" horiz-adv-x="1356" unicode="#"/><glyph d="M496-119V45q-133 3-228 25T86 129v313q97-43 206-68t204-34v252q-127 37-227 88T111 814t-58 214q0 124 55 206t155 127 233 54v141h188v-139q125-6 227-33t185-61l-88-274q-76 32-159 52t-165 27V881q143-43 243-91t154-123 54-196q0-166-109-281T684 49v-168zm188 463q60 9 88 32t29 62q0 26-10 44t-36 34-71 29zM496 936v190q-37-3-62-13t-38-29-13-42q0-25 11-44t36-33 66-29" glyph-name="dollar" horiz-adv-x="1182" unicode="$"/><glyph d="M410 1483q172 0 276-120t105-337q0-217-98-339T410 565q-168 0-270 122T37 1026q0 217 96 337t277 120m4-244q-43 0-59-58t-17-159q0-98 16-157t60-60q43 0 59 58t16 159q0 100-16 158t-59 59m1106 223L709 0H412l811 1462zm2-561q172 0 276-120t105-337q0-216-98-338T1522-16q-168 0-270 122t-103 338q0 217 96 337t277 120m4-244q-43 0-59-58t-17-159q0-98 16-157t60-60q43 0 59 58t17 159q0 104-16 160t-60 57" glyph-name="percent" horiz-adv-x="1942" unicode="%"/><glyph d="M676 1481q138 0 238-41t154-119 54-188q0-127-73-219T858 750l199-189q35 54 62 120t42 140h406q-32-148-98-285t-142-229L1647 0h-506l-99 102q-55-34-109-62T801-4 602-20q-171 0-289 57T133 191 72 406q0 87 31 161t92 135 149 105q-41 47-70 97t-45 106-16 123q0 101 52 179t156 124 255 45M557 592q-28-21-46-46t-27-53-9-59q0-63 45-103t119-40q57 0 100 15t66 34zm113 633q-42 0-73-24t-32-81q0-44 26-83t62-72q57 32 87 77t30 91q0 49-28 70t-72 22" glyph-name="ampersand" horiz-adv-x="1636" unicode="&amp;"/><glyph d="m477 1462-41-528H162l-41 528z" glyph-name="quotesingle" horiz-adv-x="598" unicode="'"/><glyph d="M74 582q0 167 27 331t88 315 165 275h326q-138-192-200-434t-62-485q0-159 27-320t84-312 149-276H354Q251-204 190-56t-89 310-27 328" glyph-name="parenleft" horiz-adv-x="735" unicode="("/><glyph d="M662 582q0-165-27-327T547-56 381-324H57q92 125 149 275t84 312 27 321q0 162-27 324t-84 315-151 280h326q104-124 165-274t89-315 27-332" glyph-name="parenright" horiz-adv-x="735" unicode=")"/><glyph d="m702 1556-38-352 356 101 37-295-314-21 207-278-260-138-143 283-123-281-272 136 206 278-313 25 45 291 348-101-39 352z" glyph-name="asterisk" horiz-adv-x="1100" unicode="*"/><glyph d="M733 856h373V588H733V227H465v361H92v268h373v367h268z" glyph-name="plus" horiz-adv-x="1200" unicode="+"/><glyph d="m498 299 14-23q-18-73-46-175t-62-206-68-180H57q20 94 39 198t35 204 25 182z" glyph-name="comma" horiz-adv-x="633" unicode=","/><glyph d="M43 393v312h565V393z" glyph-name="hyphen" horiz-adv-x="651" unicode="-"/><glyph d="M86 166q0 106 62 149t151 43q83 0 144-43t61-149q0-101-61-146T299-25q-88 0-150 45T86 166" glyph-name="period" horiz-adv-x="592" unicode="."/><glyph d="M901 1483 356-20H10l545 1503z" glyph-name="slash" horiz-adv-x="905" unicode="/"/><glyph d="M1128 729q0-176-28-314t-89-236T848 31 600-20q-183 0-300 89T128 326 72 729q0 237 50 405t167 259 311 90q183 0 299-89t173-258 56-407m-663 0q0-143 10-240t40-145 85-49q55 0 84 48t40 145 11 241q0 145-11 242t-40 146-84 50q-55 0-84-49t-40-147-11-242" glyph-name="zero" horiz-adv-x="1200" unicode="0"/><glyph d="M942 0H541v796q0 53 1 119t5 117q-26-31-48-53t-44-41L289 801 84 1053l502 409h356z" glyph-name="one" horiz-adv-x="1200" unicode="1"/><glyph d="M1122 0H61v260l357 361q111 116 172 186t87 119 25 102q0 65-42 94t-99 29q-69 0-139-39T262 995L45 1249q66 59 140 112t175 88 246 34q149 0 258-52t170-142 60-206q0-127-46-226T908 658 676 432l-107-96v-10h553z" glyph-name="two" horiz-adv-x="1200" unicode="2"/><glyph d="M1073 1145q0-104-44-179T911 842t-161-72v-6q175-22 270-106t96-240q0-120-64-219T853 40 506-20Q364-20 264 1T70 59v328q95-49 195-72t184-24q144 0 196 41t53 110q0 50-25 85t-92 54-194 19h-90v297h92q112 0 177 20t95 54 29 80q0 58-45 86t-119 28q-66 0-124-18t-101-40-65-36L72 1335q91 62 208 105t308 43q226 0 355-90t130-248" glyph-name="three" horiz-adv-x="1200" unicode="3"/><glyph d="M1169 283h-161V0H618v283H35v290l608 889h365V578h161zM618 578v170q0 23 1 58t2 70 3 60 3 27h-11q-19-45-35-74t-42-70L377 578z" glyph-name="four" horiz-adv-x="1200" unicode="4"/><glyph d="M664 958q122 0 222-55t160-160 60-256q0-163-65-276T844 39 512-20Q385-20 281-1T94 59v324q77-35 185-63t200-29q73 0 124 21t77 62 27 101q0 83-60 130t-182 48q-55 0-108-11t-93-24l-145 72 55 772h834v-329H510l-18-193q32 6 65 12t107 6" glyph-name="five" horiz-adv-x="1200" unicode="5"/><glyph d="M70 618q0 126 18 250t65 235 133 196 221 135 329 49q43 0 105-5t103-12v-309q-41 8-92 13t-125 6q-148 0-233-44t-124-128-44-199h12q26 48 63 86t93 61 133 23q128 0 220-55t141-162 49-258q0-164-62-280T897 42 621-20q-118 0-218 38T228 134 112 333 70 618m542-325q63 0 102 48t40 151q0 83-32 130t-106 48q-49 0-83-23t-52-60-18-75q0-39 8-78t27-70 47-51 67-20" glyph-name="six" horiz-adv-x="1200" unicode="6"/><glyph d="m209 0 502 1135H78v327h1055v-233L618 0z" glyph-name="seven" horiz-adv-x="1200" unicode="7"/><glyph d="M604 1483q145 0 254-39t172-118 62-200q0-88-32-154t-89-116-131-86q69-39 137-91t113-122 45-168q0-117-57-209T903 34 600-20 297 31 124 173 68 385q0 102 34 172t95 119 137 88q-61 41-112 93t-81 119-30 152q0 118 63 197t174 118 256 40M430 401q0-61 44-99t122-38q91 0 133 34t43 95q0 45-26 81t-62 64-61 42l-27 16q-45-23-82-51t-61-64-23-80m172 797q-49 0-85-28t-36-78q0-32 15-59t42-51 60-42q29 17 57 37t47 48 19 67q0 49-35 77t-84 29" glyph-name="eight" horiz-adv-x="1200" unicode="8"/><glyph d="M1130 821q0-157-27-288t-85-233-148-174T655 17 367-20q-45 0-104 2t-101 8v313q43-7 86-11t100-5q165 0 255 47t128 130 43 193h-12q-26-49-63-87t-93-61-139-22q-123 0-213 56T113 705 63 965q0 163 62 278t179 178 278 62q114 0 213-39t175-119 117-206 43-298m-538 346q-69 0-107-47t-39-151q0-82 36-130t106-48q44 0 77 23t53 60 19 76q0 39-8 77t-26 70-45 51-66 19" glyph-name="nine" horiz-adv-x="1200" unicode="9"/><glyph d="M86 166q0 106 62 149t151 43q83 0 144-43t61-149q0-101-61-146T299-25q-88 0-150 45T86 166m0 790q0 105 62 148t151 43q83 0 144-43t61-148q0-103-61-147t-144-45q-88 0-150 44T86 956" glyph-name="colon" horiz-adv-x="592" unicode=":"/><glyph d="m498 299 14-23q-18-73-46-175t-62-206-68-180H57q20 94 39 198t35 204 25 182zM92 956q0 105 61 148t150 43q83 0 145-43t62-148q0-103-62-147t-145-45q-88 0-149 44T92 956" glyph-name="semicolon" horiz-adv-x="608" unicode=";"/><glyph d="M1104 178 92 627v172l1012 506v-297L483 725l621-252z" glyph-name="less" horiz-adv-x="1200" unicode="&lt;"/><glyph d="M92 815v268h1016V815zm0-457v271h1016V358z" glyph-name="equal" horiz-adv-x="1200" unicode="="/><glyph d="m92 473 621 252-621 283v297l1012-506V627L92 178z" glyph-name="greater" horiz-adv-x="1200" unicode="&gt;"/><glyph d="M295 516v86q0 62 15 112t56 95 111 90q68 43 100 74t42 58 10 54q0 42-38 66t-99 25q-76 0-164-27t-189-80L0 1341q113 65 241 103t279 39q227 0 352-100t125-265q0-78-24-143t-76-122-137-112q-60-38-94-65t-49-52-15-57v-51zm-43-350q0 106 61 149t150 43q84 0 145-43t62-149q0-101-61-146T463-25q-88 0-149 45t-62 146" glyph-name="question" horiz-adv-x="1034" unicode="?"/><glyph d="M1755 756q0-96-24-189t-73-168-119-121-163-45q-73 0-139 30t-104 89h-15q-46-50-110-84t-150-35q-190 0-284 111t-95 295q0 135 58 242t173 170 281 63q100 0 196-19t161-42l-21-422q0-11-1-39t-1-55q0-48 14-67t35-19q37 0 63 42t40 112 14 153q0 153-58 265t-173 173-287 61q-152 0-268-48t-194-135-117-207-40-261q0-161 61-281t182-185 302-66q114 0 252 26t262 70V-59q-106-45-234-70t-266-25q-262 0-448 92T181 202 82 610q0 185 62 343t178 277 280 185 367 66q237 0 413-88t275-250 98-387M760 641q0-100 36-145t97-45q81 0 115 65t45 217l10 156q-20 3-34 4t-34 2q-82 0-134-35t-76-92-25-127" glyph-name="at" horiz-adv-x="1837" unicode="@"/><glyph d="m1055 0-72 274H508L434 0H0l477 1468h527L1487 0zM901 598l-63 240q-10 39-29 111t-37 150-29 128q-9-50-25-123t-34-146-31-120l-63-240z" glyph-name="A" horiz-adv-x="1487" unicode="A"/><glyph d="M158 1462h510q317 0 452-94t135-270q0-96-34-163t-87-106-108-53v-10q60-15 119-49t99-103 40-186q0-133-67-229T1024 52 727 0H158zm395-561h119q98 0 138 40t40 99q0 60-45 91t-141 32H553zm0-289V305h139q103 0 144 44t41 112q0 39-17 73t-60 56-116 22z" glyph-name="B" horiz-adv-x="1380" unicode="B"/><glyph d="M809 1159q-70 0-125-29t-94-86-59-136-21-183q0-138 35-232t106-142 180-48q98 0 188 27t183 65V61q-97-43-198-62T788-20q-238 0-389 94T176 337t-72 390q0 166 46 304t137 239 222 157 304 56q106 0 223-24t230-79l-121-311q-80 38-162 64t-174 26" glyph-name="C" horiz-adv-x="1329" unicode="C"/><glyph d="M1399 762q0-255-95-424T1037 85 631 0H158v1462h506q236 0 400-81t249-237 86-382m-410-14q0 133-35 220t-107 131-179 44H553V324h88q180 0 264 104t84 320" glyph-name="D" horiz-adv-x="1503" unicode="D"/><glyph d="M1026 0H158v1462h868v-317H553V915h438V598H553V322h473z" glyph-name="E" horiz-adv-x="1124" unicode="E"/><glyph d="M547 0H158v1462h864v-317H547V866h438V549H547z" glyph-name="F" horiz-adv-x="1104" unicode="F"/><glyph d="M745 856h631V68q-113-39-259-63T811-20q-211 0-370 82T193 311t-89 424q0 230 88 397t259 259 421 92q137 0 260-26t214-66l-125-310q-79 39-164 58t-183 20q-131 0-210-59T548 943t-36-218q0-136 38-229t113-142 181-49q35 0 85 5t77 12v229H745z" glyph-name="G" horiz-adv-x="1516" unicode="G"/><glyph d="M1411 0h-397v596H555V0H158v1462h397V920h459v542h397z" glyph-name="H" horiz-adv-x="1569" unicode="H"/><glyph d="M158 0v1462h397V0z" glyph-name="I" horiz-adv-x="713" unicode="I"/><glyph d="M43-459q-67 0-117 6t-88 15v307q32-6 68-13t78-8q71 0 110 29t56 87 16 145v1353h397V143q0-220-66-352T314-400 43-459" glyph-name="J" horiz-adv-x="721" unicode="J"/><glyph d="M1407 0H961L672 559l-117-70V0H158v1462h397V827q25 48 57 96t64 91l307 448h432L954 807z" glyph-name="K" horiz-adv-x="1407" unicode="K"/><glyph d="M158 0v1462h395V319h563V0z" glyph-name="L" horiz-adv-x="1192" unicode="L"/><glyph d="M795 0 496 1053h-9q4-41 8-111t9-151 4-156V0H158v1462h526L989 424h8l299 1038h527V0h-363v641q0 69 2 148t6 150 7 112h-9L1171 0z" glyph-name="M" horiz-adv-x="1980" unicode="M"/><glyph d="M1550 0h-518L498 1030h-9q5-47 9-113t7-134 3-124V0H158v1462h516l532-1016h6q-3 48-6 111t-5 129-3 115v661h352z" glyph-name="N" horiz-adv-x="1708" unicode="N"/><glyph d="M1526 733q0-169-40-307t-127-239-221-153-323-54q-184 0-318 53T275 186 146 425t-42 310q0 228 75 396t234 261 404 93q250 0 406-93t230-262 73-397m-1006 0q0-132 30-227t95-146 170-51q109 0 173 51t93 146 29 227q0 198-66 313t-227 115q-107 0-172-52t-95-148-30-228" glyph-name="O" horiz-adv-x="1632" unicode="O"/><glyph d="M664 1462q278 0 416-121t139-344q0-100-28-192t-93-164-171-114-263-42H553V0H158v1462zm-9-319H553V807h78q51 0 95 17t70 57 27 106q0 69-41 112t-127 44" glyph-name="P" horiz-adv-x="1294" unicode="P"/><glyph d="M1526 733q0-152-32-281t-102-228-182-161l357-411h-492L829-20h-14q-184 0-318 53T275 186 146 425t-42 310q0 228 75 396t234 261 404 93q250 0 406-93t230-262 73-397m-1006 0q0-132 30-227t95-146 170-51q109 0 173 51t93 146 29 227q0 198-66 313t-227 115q-107 0-172-52t-95-148-30-228" glyph-name="Q" horiz-adv-x="1632" unicode="Q"/><glyph d="M637 1462q199 0 331-48t198-145 67-239q0-89-30-162t-85-130-133-101L1411 0H963L653 532H553V0H158v1462zm-6-299h-78V829h74q91 0 149 40t58 143q0 71-48 111t-155 40" glyph-name="R" horiz-adv-x="1386" unicode="R"/><glyph d="M1114 444q0-119-60-225T868 46 541-20q-100 0-175 9T225 18 90 72v352q119-60 240-91t219-32q59 0 96 14t56 38 18 57q0 38-26 64t-85 56-153 72q-81 38-146 78t-112 91-72 121-25 163q0 141 69 236t194 144 288 48q143 0 257-32t206-73l-121-305q-94 43-185 68t-169 26q-51 0-83-12t-48-34-16-48q0-34 26-61t89-58 171-82q107-48 182-103t114-133 40-192" glyph-name="S" horiz-adv-x="1182" unicode="S"/><glyph d="M803 0H408v1139H51v323h1108v-323H803z" glyph-name="T" horiz-adv-x="1210" unicode="T"/><glyph d="M1401 1462V582q0-184-70-319T1121 54 770-20q-302 0-461 155T150 573v889h397V604q0-155 58-225t171-70q81 0 132 30t74 97 24 170v856z" glyph-name="U" horiz-adv-x="1550" unicode="U"/><glyph d="M1421 1462 942 0H477L0 1462h444l199-741q11-42 25-107t27-131 16-106q4 41 15 105t24 128 26 107l203 745z" glyph-name="V" horiz-adv-x="1421" unicode="V"/><glyph d="M2097 1462 1737 0h-467l-140 637q-4 18-12 61t-19 98-19 108-13 91q-4-37-13-90t-19-109-20-98-14-61L860 0H393L31 1462h381l159-733q6-27 16-76t22-108 22-113 14-90q8 62 21 141t30 160 32 152 26 114l129 553h366l125-553q10-43 25-113t32-153 31-161 21-140q6 50 20 126t28 149 23 110l162 735z" glyph-name="W" horiz-adv-x="2128" unicode="W"/><glyph d="M1475 0h-457L733 457 451 0H4l485 748-456 714h438l264-452 254 452h451L977 717z" glyph-name="X" horiz-adv-x="1481" unicode="X"/><glyph d="m680 920 252 542h428L879 571V0H481v559L0 1462h430z" glyph-name="Y" horiz-adv-x="1360" unicode="Y"/><glyph d="M1200 0H61v244l633 899H76v319h1108v-243L551 319h649z" glyph-name="Z" horiz-adv-x="1251" unicode="Z"/><glyph d="M616-344H117v1847h499v-254H434V-90h182z" glyph-name="bracketleft" horiz-adv-x="664" unicode="["/><glyph d="M352 1483 897-20H551L6 1483z" glyph-name="backslash" horiz-adv-x="905" unicode="\"/><glyph d="M47-90h182v1339H47v254h500V-344H47z" glyph-name="bracketright" horiz-adv-x="664" unicode="]"/><glyph d="m-16 502 440 966h170l508-966H807l-289 577-248-577z" glyph-name="asciicircum" horiz-adv-x="1075" unicode="^"/><glyph d="M1028-379H-4v246h1032z" glyph-name="underscore" horiz-adv-x="1024" unicode="_"/><glyph d="M512 1569q35-46 83-101t97-107 82-91v-29H514q-42 26-100 66t-121 84-118 86-93 71v21z" glyph-name="grave" horiz-adv-x="856" unicode="`"/><glyph d="M688 1153q215 0 336-106t121-304V0H874l-75 150h-8q-48-60-98-97T577-2 418-20q-98 0-176 40T119 141 74 346q0 182 126 270t365 99l189 6v16q0 76-37 108t-101 32q-67 0-149-23t-166-61l-113 258q98 50 222 76t278 26m68-647-90-4q-108-4-151-37t-44-96q0-58 31-85t82-28q71 0 121 45t51 117z" glyph-name="a" horiz-adv-x="1276" unicode="a"/><glyph d="M526 1556v-352q0-60-4-114t-10-103h14q44 69 115 117t186 49q177 0 289-150t113-434q0-193-52-324T1032 47 815-20q-120 0-182 41t-107 90h-24L440 0H135v1556zm158-710q-54 0-89-25t-52-77-17-134v-55q0-132 35-196t127-64q69 0 106 71t37 207-36 204-111 69" glyph-name="b" horiz-adv-x="1317" unicode="b"/><glyph d="M651-20q-172 0-299 61T156 231 86 561q0 206 77 337t213 193 306 62q104 0 197-23t174-63L938 778q-70 31-130 49t-126 19q-59 0-104-31t-70-93-25-159q0-98 25-158t71-87 105-27q85 0 169 26t161 74V80Q944 34 856 7T651-20" glyph-name="c" horiz-adv-x="1104" unicode="c"/><glyph d="M487-20q-175 0-288 149T86 565q0 290 116 439t300 149q76 0 131-22t95-59 71-85h8q-7 43-13 118t-6 148v303h394V0H887l-84 143h-15q-27-45-67-82T623 2 487-20m160 309q94 0 132 59t42 182v31q0 134-37 205t-141 72q-70 0-116-68t-46-211q0-141 46-205t120-65" glyph-name="d" horiz-adv-x="1317" unicode="d"/><glyph d="M645 1153q165 0 285-57t185-173 65-288V461H481q5-89 66-146t182-57q106 0 194 21t183 65V63q-82-43-179-63T682-20q-171 0-306 61T164 230 86 559q0 204 70 335t196 195 293 64m14-266q-69 0-115-43t-55-137h336q-1 50-20 91t-55 65-91 24" glyph-name="e" horiz-adv-x="1266" unicode="e"/><glyph d="M827 840H586V0H195v840H45v192l158 96v19q0 147 39 239t124 137 222 44q88 0 159-14t150-40l-84-253q-29 8-64 14t-77 6q-45 0-65-27t-21-90v-30h241z" glyph-name="f" horiz-adv-x="846" unicode="f"/><glyph d="M522-492q-241 0-371 80T20-180Q20-79 83-13t189 95q-52 22-90 71t-39 97q0 53 29 93t121 97q-88 39-138 122t-51 202q0 123 56 210t165 133 265 46q21 0 64-3t87-8 68-9h395V944l-155-57q16-29 24-63t8-72q0-183-128-284T569 367q-63 0-100 8-7-13-10-25t-4-24q0-23 27-36t67-19 76-5h188q191 0 286-80t95-241q0-207-176-322T522-492m19 244q71 0 143 12t121 41 49 74q0 35-29 52t-75 24-97 6H501q-42 0-76-13t-55-37-20-52q0-48 52-77t139-30m53 836q56 0 86 43t31 129q0 88-29 132t-88 44q-61 0-91-43t-30-131q0-87 30-130t91-44" glyph-name="g" horiz-adv-x="1241" unicode="g"/><glyph d="M526 1556v-221q0-126-5-211t-11-131h18q37 59 84 94t104 50 124 16q112 0 202-43t145-134 54-239V0H848v618q0 113-33 170t-102 58q-71 0-112-40t-58-118-17-190V0H135v1556z" glyph-name="h" horiz-adv-x="1372" unicode="h"/><glyph d="M528 1133V0H137v1133zm-194 456q84 0 146-35t63-139q0-101-62-136t-147-36q-86 0-146 35t-61 137q0 104 60 139t147 35" glyph-name="i" horiz-adv-x="666" unicode="i"/><glyph d="M106-492q-47 0-108 7t-102 18v305q32-9 59-13t61-5q48 0 83 33t36 137v1143h391V-92q0-102-40-193T354-434t-248-58m19 1907q0 104 60 139t147 35q84 0 146-35t63-139q0-101-62-136t-147-36q-86 0-146 35t-61 137" glyph-name="j" horiz-adv-x="664" unicode="j"/><glyph d="M528 1556V944q0-69-5-153t-17-154h8q23 35 58 88t63 88l254 320h436L932 651 1350 0H903L655 406l-127-97V0H135v1556z" glyph-name="k" horiz-adv-x="1350" unicode="k"/><glyph d="M526 0H135v1556h391z" glyph-name="l" horiz-adv-x="662" unicode="l"/><glyph d="M1518 1153q194 0 296-99t103-317V0h-391v616q0 129-34 179t-103 51q-95 0-131-83t-37-235V0H829v616q0 82-14 132t-44 74-73 24q-67 0-104-40t-53-119-15-191V0H135v1133h295l57-140h11q30 46 77 82t113 57 150 21q125 0 206-42t132-116h12q54 76 139 117t191 41" glyph-name="m" horiz-adv-x="2048" unicode="m"/><glyph d="M844 1153q175 0 286-99t111-317V0H850v618q0 113-32 170t-105 58q-111 0-149-90t-38-260V0H135v1133h295l53-150h15q36 54 86 92t115 58 145 20" glyph-name="n" horiz-adv-x="1372" unicode="n"/><glyph d="M1217 569q0-142-39-252t-113-185T886 19 649-20q-123 0-225 38T245 132 128 317 86 569q0 188 68 318t196 198 305 68q163 0 290-68t199-198 73-318m-734 0q0-97 17-163t54-101 99-35q61 0 97 34t52 101 17 164q0 97-16 162t-53 98-99 33q-89 0-128-74t-40-219" glyph-name="o" horiz-adv-x="1305" unicode="o"/><glyph d="M827 1153q188 0 295-150t107-434q0-193-54-324T1028 47 815-20q-80 0-135 20t-92 50-62 61h-12q5-39 8-84t4-105v-414H135v1625h318l55-144h18q28 44 68 81t97 60 136 23M680 846q-57 0-90-27t-47-81-17-136v-31q0-90 14-151t48-93 94-32q49 0 82 28t50 89 17 161q0 149-38 211t-113 62" glyph-name="p" horiz-adv-x="1317" unicode="p"/><glyph d="M791-492v469q0 42 3 83t9 83h-12Q751 76 680 28T492-20q-181 0-293 149T86 565q0 192 52 323t145 198 215 67q118 0 191-46t118-114h8l29 140h338V-492zM651 283q64 0 101 26t53 80 16 135v47q0 133-36 206t-140 73q-81 0-121-74t-41-217q0-148 41-212t127-64" glyph-name="q" horiz-adv-x="1317" unicode="q"/><glyph d="M819 1153q32 0 67-4t52-8l-35-369q-19 5-49 8t-84 4q-37 0-79-7t-79-29-62-68-24-123V0H135v1133h291l61-181h19q31 56 79 101t109 73 125 27" glyph-name="r" horiz-adv-x="961" unicode="r"/><glyph d="M977 348q0-108-48-191T776 27 498-20Q377-20 282-7T88 43v313q107-49 218-70t175-22q66 0 96 14t31 44q0 25-20 42t-73 41-148 62q-94 39-156 85t-94 110-31 157q0 166 128 250t339 84q112 0 211-24t205-72L862 805q-84 38-170 61t-137 23q-46 0-71-12t-25-35q0-21 17-37t67-37 143-59q99-40 163-85t96-111 32-165" glyph-name="s" horiz-adv-x="1059" unicode="s"/><glyph d="M690 289q53 0 97 11t92 28V43Q815 15 744-2T561-20q-110 0-194 34T237 134t-47 239v467H53v159l174 123 101 238h256v-227h278V840H584V399q0-55 28-82t78-28" glyph-name="t" horiz-adv-x="942" unicode="t"/><glyph d="M1237 1133V0H942l-49 141h-23q-35-57-88-92T663-3 528-20q-111 0-200 43T186 158t-53 237v738h391V514q0-110 31-167t104-58q74 0 114 40t57 118 16 190v496z" glyph-name="u" horiz-adv-x="1372" unicode="u"/><glyph d="M432 0 0 1133h408l192-670q3-9 10-46t8-69h7q0 34 7 65t11 48l201 672h407L819 0z" glyph-name="v" horiz-adv-x="1251" unicode="v"/><glyph d="M1110 0 991 496q-9 38-18 86t-17 98-15 90-9 64h-6q-3-23-10-64t-16-92-19-101-21-96L745 0H334L25 1133h385l92-435q10-48 20-114t19-135 12-123h6q2 41 9 94t17 107 18 93 11 56l105 457h432l96-463q9-39 20-99t22-126 16-119h6q4 55 12 125t18 136 21 111l100 435h377L1528 0z" glyph-name="w" horiz-adv-x="1864" unicode="w"/><glyph d="M375 578 29 1133h444l172-318 176 318h445L911 578 1280 0H836L645 344 455 0H10z" glyph-name="x" horiz-adv-x="1290" unicode="x"/><glyph d="M-2 1133h412l192-650q4-14 8-34t7-44 4-45h8q5 41 11 71t13 50l197 652h399L801-72q-52-138-120-231T512-444t-250-48q-54 0-92 5t-68 12v307q22-4 54-8t67-4q65 0 105 26t67 68 45 92l4 10z" glyph-name="y" horiz-adv-x="1249" unicode="y"/><glyph d="M987 0H49v223l469 611H76v299h889V891L516 299h471z" glyph-name="z" horiz-adv-x="1038" unicode="z"/><glyph d="M821-344q-210 0-321 36T348-196 307 0v248q0 62-36 99t-92 54-118 17v301q64 0 120 16t91 54 35 100v254q0 117 40 192t150 111 324 37v-279q-41-1-85-6t-74-27-31-73V827q0-124-63-180t-177-72v-12q117-18 178-73t62-173V41q0-50 31-72t75-27 84-8z" glyph-name="braceleft" horiz-adv-x="887" unicode="{"/><glyph d="M387 1556h268V-446H387z" glyph-name="bar" horiz-adv-x="1042" unicode="|"/><glyph d="M66-344v278q40 2 84 7t75 28 31 72v276q0 117 61 172t179 74v12q-114 16-177 72t-63 180v271q0 51-30 73t-75 27-85 6v279q213 0 324-36t150-112 40-192V889q0-62 35-99t91-54 119-17V418q-61 0-117-17t-92-54-36-99V0q0-120-41-196T387-308 66-344" glyph-name="braceright" horiz-adv-x="887" unicode="}"/><glyph d="M561 592q-75 32-131 43t-104 12q-60 0-120-35T92 526v281q53 54 117 81t147 27q60 0 120-11t161-52q75-32 133-43t104-12q57 0 118 35t114 86V637q-52-54-117-81t-147-28q-60 0-120 12t-161 52" glyph-name="asciitilde" horiz-adv-x="1200" unicode="~"/><glyph glyph-name="uni00A0" horiz-adv-x="532"/><glyph d="M133 612h330l51-946H82zm377 351q0-106-62-149t-149-44q-85 0-146 43T92 963q0 101 61 145t146 45q86 0 148-44t63-146" glyph-name="exclamdown" horiz-adv-x="594" unicode="¡"/><glyph d="M772 1483v-154q89-4 171-26t153-58L981 956q-70 31-130 49t-126 19q-59 0-104-31t-70-93-25-159q0-98 25-158t71-87 105-27q85 0 169 26t161 74V258q-58-38-127-63t-158-35V-20H565v186q-135 21-233 89T182 444t-53 295q0 172 55 291t154 191 227 96v166z" glyph-name="cent" horiz-adv-x="1200" unicode="¢"/><glyph d="M723 1485q109 0 213-22t192-60l-110-289q-77 29-141 42t-111 13q-48 0-80-27t-33-110V926h344V649H653v-96q0-65-25-109t-61-73-73-45h671V0H104v313q55 32 91 60t54 69 19 109v98H102v277h166v118q0 155 57 252t160 143 238 46" glyph-name="sterling" horiz-adv-x="1200" unicode="£"/><glyph d="M180 723q0 47 11 92t30 84L96 1018l180 182 123-123q39 19 85 30t87 11q48 0 91-11t86-34l120 127 185-174-127-125q20-37 30-84t11-94q0-49-10-92t-31-84l121-119-179-178-120 119q-39-17-84-28t-93-11q-47 0-91 8t-85 29L276 252 98 430l123 119q-21 41-31 83t-10 91m256 0q0-38 18-68t50-49 67-18q39 0 71 18t52 48 19 69q0 39-19 70t-51 49-72 18q-36 0-67-18t-49-49-19-70" glyph-name="currency" horiz-adv-x="1159" unicode="¤"/><glyph d="m600 958 193 504h399L829 750h195V539H782V422h242V213H782V0H418v213H172v209h246v117H172v211h190L8 1462h400z" glyph-name="yen" horiz-adv-x="1200" unicode="¥"/><glyph d="M387 1556h268V717H387zm0-1163h268v-839H387z" glyph-name="brokenbar" horiz-adv-x="1042" unicode="¦"/><glyph d="M106 803q0 78 52 137t112 96q-69 50-105 110t-36 136q0 129 105 212t301 83q103 0 198-24t172-62l-98-221q-66 35-139 60t-136 26q-52 0-80-18t-28-56q0-22 14-45t53-49 107-55q117-47 189-99t107-109 34-122q0-103-46-160t-102-98q56-42 90-103t35-141q0-138-109-232T469-25Q366-25 279-4T117 61v244q58-31 122-55t125-39 107-14q78 0 108 26t31 70q0 28-12 50t-49 46-109 55q-98 44-173 90T149 645t-43 158m291 31q0-34 18-61t56-55 98-59l27-14q14 16 27 41t14 66q0 36-16 66t-56 60-110 58q-22-12-40-37t-18-65" glyph-name="section" horiz-adv-x="1024" unicode="§"/><glyph d="M223 1413q0 82 49 120t121 38q69 0 120-38t52-120q0-79-51-117t-121-39q-72 0-121 38t-49 118m479 0q0 82 49 120t123 38q70 0 121-38t52-120q0-79-51-117t-122-39q-73 0-122 38t-50 118" glyph-name="dieresis" horiz-adv-x="1233" unicode="¨"/><glyph d="M844-20q-163 0-300 55T305 192 148 430 92 731q0 164 55 301t157 238 239 157 301 56 301-55 238-157 156-239 56-301q0-163-55-300t-157-239-238-156-301-56m2 282q-221 0-333 129T401 735q0 140 48 244t146 161 241 58q92 0 170-20t151-58l-92-205q-52 28-102 42t-109 14q-79 0-125-61t-47-179q0-127 43-184t135-58q65 0 131 16t127 52V326q-63-32-127-48t-145-16m-2-119q125 0 229 43t179 121 117 186 42 238-41 237-117 186-180 122-229 43q-127 0-232-43t-181-121-117-186-42-238q0-130 41-237t118-186 181-122 232-43" glyph-name="copyright" horiz-adv-x="1688" unicode="©"/><glyph d="M436 1479q132 0 214-72t83-217V741H571l-45 127q-44-69-98-104t-145-35q-65 0-118 26t-85 78-31 134q0 87 40 136t117 72 187 27l88 4v6q0 41-26 58t-76 18q-54 0-100-13t-111-42l-76 166q76 37 149 58t195 22m45-410-84-6q-61-4-78-29t-18-55q0-32 18-50t52-18q55 0 82 42t28 94z" glyph-name="ordfeminine" horiz-adv-x="813" unicode="ª"/><glyph d="m74 588 389 483 280-149-272-347 272-348L463 80 74 561zm575 0 387 483 283-149-275-347 275-348-283-147-387 481z" glyph-name="guillemotleft" horiz-adv-x="1395" unicode="«"/><glyph d="M1106 856V238H836v350H92v268z" glyph-name="logicalnot" horiz-adv-x="1200" unicode="¬"/><glyph d="M43 393v312h565V393z" glyph-name="uni00AD" horiz-adv-x="651" unicode="­"/><glyph d="M518 313v875h279q213 0 304-70t91-200q0-105-41-159t-100-83l194-363H967L821 633h-35V313zm268 496h11q58 0 91 21t34 77q0 54-33 70t-90 16h-13zm58-829q-163 0-300 55T305 192 148 430 92 731q0 164 55 301t157 238 239 157 301 56 301-55 238-157 156-239 56-301q0-163-55-300t-157-239-238-156-301-56m0 163q125 0 229 43t179 121 117 186 42 238-41 237-117 186-180 122-229 43q-127 0-232-43t-181-121-117-186-42-238q0-130 41-237t118-186 181-122 232-43" glyph-name="registered" horiz-adv-x="1688" unicode="®"/><glyph d="M1030 1556H-6v246h1036z" glyph-name="overscore" horiz-adv-x="1024" unicode="¯"/><glyph d="M432 750q-107 0-190 46T111 924t-48 190q0 107 47 190t131 131 191 48q108 0 191-48t130-131 48-190q0-108-47-190T623 796t-191-46m0 237q60 0 95 35t36 92q0 60-35 96t-96 37q-60 0-95-36t-36-97q0-57 35-92t96-35" glyph-name="degree" horiz-adv-x="864" unicode="°"/><glyph d="M92 0v268h1014V0zm641 944h373V676H733V315H465v361H92v268h373v367h268z" glyph-name="plusminus" horiz-adv-x="1200" unicode="±"/><glyph d="M750 852H76v207l215 213q58 57 90 95t45 66 14 48q0 28-17 42t-48 15q-34 0-74-17t-98-71L61 1616q68 62 153 98t218 37q148 0 222-65t75-173q0-79-37-144t-96-122-127-114l-66-56h347z" glyph-name="uni00B2" horiz-adv-x="817" unicode="²"/><glyph d="M406 1747q152 0 235-59t84-156q0-76-37-131t-125-88v-8q97-25 144-77t47-138q0-123-100-188t-275-66q-89 0-168 17T70 905v234q65-45 141-63t156-19q52 0 84 15t32 52q0 28-22 50t-113 22H244v195h80q84 0 111 22t28 55q0 25-21 46t-71 22q-49 0-93-16t-98-58L63 1632q62 48 148 81t195 34" glyph-name="uni00B3" horiz-adv-x="817" unicode="³"/><glyph d="M774 1569v-21q-36-29-92-70t-118-86-121-85-101-66H82v29q35 38 84 90t98 108 82 101z" glyph-name="acute" horiz-adv-x="856" unicode="´"/><glyph d="M1241 1133V0H948l-53 152h-16q-22-58-55-96T750-1t-84-19q-55 0-87 20t-61 63h-4q3-28 6-69t4-84 2-82v-320H135v1625h391V518q0-115 33-172t113-57q67 0 105 40t54 118 17 190v496z" glyph-name="uni00B5" horiz-adv-x="1376" unicode="µ"/><glyph d="M1186-260H995v1587H838V-260H647v819q-31-9-56-13t-69-5q-127 0-221 47T154 745t-52 297q0 196 57 308t158 159 236 47h633z" glyph-name="paragraph" horiz-adv-x="1317" unicode="¶"/><glyph d="M86 723q0 106 62 149t151 43q83 0 144-43t61-149q0-101-61-146t-144-45q-88 0-150 45T86 723" glyph-name="middot" horiz-adv-x="592" unicode="·"/><glyph d="M541-252q0-109-75-174t-200-66q-70 0-127 11t-94 24v193q34-11 66-17t67-6q38 0 60 16t22 42q0 35-33 55t-112 35L176 0h195l-19-61q41-9 85-29t74-58 30-104" glyph-name="cedilla" horiz-adv-x="590" unicode="¸"/><glyph d="M616 1729V852H334v356q0 22 1 68t4 91 5 58q-9-18-27-37t-34-34l-80-70-146 170 340 275z" glyph-name="uni00B9" horiz-adv-x="817" unicode="¹"/><glyph d="M756 1104q0-178-97-276t-260-99q-153 0-251 100t-99 275q0 179 95 277t259 98q100 0 179-45t127-128 47-202m-455 0q0-86 24-129t76-43q51 0 75 43t24 129-24 130-75 44q-52 0-76-44t-24-130" glyph-name="ordmasculine" horiz-adv-x="803" unicode="º"/><glyph d="M1321 561 934 80 649 227l275 348-275 347 285 149 387-483zm-576 0L358 80 76 227l272 348L76 922l282 149 387-483z" glyph-name="guillemotright" horiz-adv-x="1395" unicode="»"/><glyph d="m356 0 754 1462h301L657 0zm-92 586v356q0 20 1 57t3 80 6 80q-4-9-20-28t-37-39l-84-74-145 170 340 274h219V586zM1399 0v139h-371v189l350 555h295V340h125V139h-125V0zm-158 340h158v166q0 35 1 69t5 66q-20-51-35-83t-27-50z" glyph-name="onequarter" horiz-adv-x="1817" unicode="¼"/><glyph d="m381 0 754 1462h301L682 0zM264 586v356q0 9 1 41t3 72 3 70 3 34q-4-9-23-31t-40-41l-78-69-145 170 340 274h219V586zM1155 0v207l215 213q57 56 89 94t47 65 14 50q0 29-17 43t-49 14q-40 0-83-22t-89-66l-141 166q80 74 167 104t203 31q142 0 219-62t78-175q0-54-17-101t-47-87-65-75l-196-174h346V0z" glyph-name="onehalf" horiz-adv-x="1896" unicode="½"/><glyph d="m465 0 754 1462h301L766 0zm-66 569q-92 0-169 17T90 639v233q59-41 132-61t165-20q59 0 88 16t29 51q0 41-33 56t-102 16H264v194h80q72 0 105 18t34 60q0 25-20 46t-72 22q-49 0-93-16t-97-58L84 1366q75 57 160 86t182 29q148 0 233-57t86-158q0-79-37-133t-124-86v-9q97-24 143-76t47-139q0-121-98-187t-277-67M1470 0v139h-370v189l350 555h295V340h125V139h-125V0zm-157 340h157v166q0 35 2 69t5 66q-20-51-35-83t-27-50z" glyph-name="threequarters" horiz-adv-x="1888" unicode="¾"/><glyph d="M739 612v-86q0-61-15-111t-55-96-112-90q-67-43-99-74t-43-58-10-54q0-42 38-66t99-25q76 0 164 27t189 80l139-272q-112-64-240-103t-280-39q-227 0-352 100T37 10q0 79 24 144t76 122 137 111q61 39 95 65t48 52 15 57v51zm43 350q0-106-61-149t-150-43q-84 0-145 43t-62 149q0 101 61 146t146 45q88 0 149-45t62-146" glyph-name="questiondown" horiz-adv-x="1034" unicode="¿"/><glyph d="m1055 0-72 274H508L434 0H0l477 1468h527L1487 0zM901 598l-63 240q-10 39-29 111t-37 150-29 128q-9-50-25-123t-34-146-31-120l-63-240zM741 1899q35-46 83-101t97-107 82-91v-29H743q-42 26-100 66t-121 84-118 86-93 71v21z" glyph-name="Agrave" horiz-adv-x="1487" unicode="À"/><glyph d="m1055 0-72 274H508L434 0H0l477 1468h527L1487 0zM901 598l-63 240q-10 39-29 111t-37 150-29 128q-9-50-25-123t-34-146-31-120l-63-240zm330 1301v-21q-36-29-92-70t-118-86-121-85-101-66H539v29q35 38 84 90t98 108 82 101z" glyph-name="Aacute" horiz-adv-x="1487" unicode="Á"/><glyph d="m1055 0-72 274H508L434 0H0l477 1468h527L1487 0zM901 598l-63 240q-10 39-29 111t-37 150-29 128q-9-50-25-123t-34-146-31-120l-63-240zm43 1301q32-47 79-103t95-109 82-87v-29H946q-53 31-100 67t-100 83q-54-46-97-81t-98-69H293v29q39 37 87 89t95 107 76 103z" glyph-name="Acircumflex" horiz-adv-x="1487" unicode="Â"/><glyph d="m1055 0-72 274H508L434 0H0l477 1468h527L1487 0zM901 598l-63 240q-10 39-29 111t-37 150-29 128q-9-50-25-123t-34-146-31-120l-63-240zm-581 969q6 94 25 159t51 105 76 59 100 19q38 0 81-14t87-34 86-33 82-15q18 0 39 17t32 81h183q-13-184-80-263t-166-79q-45 0-90 14t-90 34-85 33-79 15q-19 0-39-16t-33-82z" glyph-name="Atilde" horiz-adv-x="1487" unicode="Ã"/><glyph d="m1055 0-72 274H508L434 0H0l477 1468h527L1487 0zM901 598l-63 240q-10 39-29 111t-37 150-29 128q-9-50-25-123t-34-146-31-120l-63-240zM332 1743q0 82 49 120t121 38q69 0 120-38t52-120q0-79-51-117t-121-39q-72 0-121 38t-49 118m479 0q0 82 49 120t123 38q70 0 121-38t52-120q0-79-51-117t-122-39q-73 0-122 38t-50 118" glyph-name="Adieresis" horiz-adv-x="1487" unicode="Ä"/><glyph d="m1055 0-72 274H508L434 0H0l477 1468h527L1487 0zM901 598l-63 240q-10 39-29 111t-37 150-29 128q-9-50-25-123t-34-146-31-120l-63-240zm-164 705q-118 0-191 67t-73 185q0 119 73 186t191 68q113 0 192-67t80-185q0-118-79-186t-193-68m0 168q35 0 59 23t25 61q0 38-24 61t-60 23q-35 0-59-23t-25-61q0-37 21-60t63-24" glyph-name="Aring" horiz-adv-x="1487" unicode="Å"/><glyph d="M1839 0H969v274H532L432 0H-10l628 1462h1221v-317h-473V915h438V598h-438V322h473zM653 602h316v526H858z" glyph-name="AE" horiz-adv-x="1937" unicode="Æ"/><glyph d="M809 1159q-70 0-125-29t-94-86-59-136-21-183q0-138 35-232t106-142 180-48q98 0 188 27t183 65V61q-97-43-198-62T788-20q-238 0-389 94T176 337t-72 390q0 166 46 304t137 239 222 157 304 56q106 0 223-24t230-79l-121-311q-80 38-162 64t-174 26m203-1411q0-109-75-174t-200-66q-70 0-127 11t-94 24v193q34-11 66-17t67-6q38 0 60 16t22 42q0 35-33 55t-112 35L647 0h195l-19-61q41-9 85-29t74-58 30-104" glyph-name="Ccedilla" horiz-adv-x="1329" unicode="Ç"/><glyph d="M1026 0H158v1462h868v-317H553V915h438V598H553V322h473zM590 1899q35-46 83-101t97-107 82-91v-29H592q-42 26-100 66t-121 84-118 86-93 71v21z" glyph-name="Egrave" horiz-adv-x="1124" unicode="È"/><glyph d="M1026 0H158v1462h868v-317H553V915h438V598H553V322h473zm53 1899v-21q-36-29-92-70t-118-86-121-85-101-66H387v29q35 38 84 90t98 108 82 101z" glyph-name="Eacute" horiz-adv-x="1124" unicode="É"/><glyph d="M1026 0H158v1462h868v-317H553V915h438V598H553V322h473zM792 1899q32-47 79-103t95-109 82-87v-29H794q-53 31-100 67t-100 83q-54-46-97-81t-98-69H141v29q39 37 87 89t95 107 76 103z" glyph-name="Ecircumflex" horiz-adv-x="1124" unicode="Ê"/><glyph d="M1026 0H158v1462h868v-317H553V915h438V598H553V322h473zM180 1743q0 82 49 120t121 38q69 0 120-38t52-120q0-79-51-117t-121-39q-72 0-121 38t-49 118m479 0q0 82 49 120t123 38q70 0 121-38t52-120q0-79-51-117t-122-39q-73 0-122 38t-50 118" glyph-name="Edieresis" horiz-adv-x="1124" unicode="Ë"/><glyph d="M158 0v1462h397V0zm159 1899q35-46 83-101t97-107 82-91v-29H319q-42 26-100 66t-121 84-118 86-93 71v21z" glyph-name="Igrave" horiz-adv-x="713" unicode="Ì"/><glyph d="M158 0v1462h397V0zm687 1899v-21q-36-29-92-70t-118-86-121-85-101-66H153v29q35 38 84 90t98 108 82 101z" glyph-name="Iacute" horiz-adv-x="713" unicode="Í"/><glyph d="M158 0v1462h397V0zm397 1899q32-47 79-103t95-109 82-87v-29H557q-53 31-100 67t-100 83q-54-46-97-81t-98-69H-96v29q39 37 87 89t95 107 76 103z" glyph-name="Icircumflex" horiz-adv-x="713" unicode="Î"/><glyph d="M158 0v1462h397V0zM-56 1743q0 82 49 120t121 38q69 0 120-38t52-120q0-79-51-117t-121-39q-72 0-121 38t-49 118m479 0q0 82 49 120t123 38q70 0 121-38t52-120q0-79-51-117t-122-39q-73 0-122 38t-50 118" glyph-name="Idieresis" horiz-adv-x="713" unicode="Ï"/><glyph d="M664 1462q236 0 400-81t249-237 86-382q0-255-95-424T1037 85 631 0H158v563H31v320h127v579zm4-319H553V883h211V563H553V324h88q180 0 264 104t84 320q0 133-35 220t-107 131-179 44" glyph-name="Eth" horiz-adv-x="1503" unicode="Ð"/><glyph d="M1550 0h-518L498 1030h-9q5-47 9-113t7-134 3-124V0H158v1462h516l532-1016h6q-3 48-6 111t-5 129-3 115v661h352zM430 1567q6 94 25 159t51 105 76 59 100 19q38 0 81-14t87-34 86-33 82-15q18 0 39 17t32 81h183q-13-184-80-263t-166-79q-45 0-90 14t-90 34-85 33-79 15q-19 0-39-16t-33-82z" glyph-name="Ntilde" horiz-adv-x="1708" unicode="Ñ"/><glyph d="M1526 733q0-169-40-307t-127-239-221-153-323-54q-184 0-318 53T275 186 146 425t-42 310q0 228 75 396t234 261 404 93q250 0 406-93t230-262 73-397m-1006 0q0-132 30-227t95-146 170-51q109 0 173 51t93 146 29 227q0 198-66 313t-227 115q-107 0-172-52t-95-148-30-228m295 1166q35-46 83-101t97-107 82-91v-29H817q-42 26-100 66t-121 84-118 86-93 71v21z" glyph-name="Ograve" horiz-adv-x="1632" unicode="Ò"/><glyph d="M1526 733q0-169-40-307t-127-239-221-153-323-54q-184 0-318 53T275 186 146 425t-42 310q0 228 75 396t234 261 404 93q250 0 406-93t230-262 73-397m-1006 0q0-132 30-227t95-146 170-51q109 0 173 51t93 146 29 227q0 198-66 313t-227 115q-107 0-172-52t-95-148-30-228m784 1166v-21q-36-29-92-70t-118-86-121-85-101-66H612v29q35 38 84 90t98 108 82 101z" glyph-name="Oacute" horiz-adv-x="1632" unicode="Ó"/><glyph d="M1526 733q0-169-40-307t-127-239-221-153-323-54q-184 0-318 53T275 186 146 425t-42 310q0 228 75 396t234 261 404 93q250 0 406-93t230-262 73-397m-1006 0q0-132 30-227t95-146 170-51q109 0 173 51t93 146 29 227q0 198-66 313t-227 115q-107 0-172-52t-95-148-30-228m498 1166q32-47 79-103t95-109 82-87v-29h-254q-53 31-100 67t-100 83q-54-46-97-81t-98-69H367v29q39 37 87 89t95 107 76 103z" glyph-name="Ocircumflex" horiz-adv-x="1632" unicode="Ô"/><glyph d="M1526 733q0-169-40-307t-127-239-221-153-323-54q-184 0-318 53T275 186 146 425t-42 310q0 228 75 396t234 261 404 93q250 0 406-93t230-262 73-397m-1006 0q0-132 30-227t95-146 170-51q109 0 173 51t93 146 29 227q0 198-66 313t-227 115q-107 0-172-52t-95-148-30-228m-127 834q6 94 25 159t51 105 76 59 100 19q38 0 81-14t87-34 86-33 82-15q18 0 39 17t32 81h183q-13-184-80-263t-166-79q-45 0-90 14t-90 34-85 33-79 15q-19 0-39-16t-33-82z" glyph-name="Otilde" horiz-adv-x="1632" unicode="Õ"/><glyph d="M1526 733q0-169-40-307t-127-239-221-153-323-54q-184 0-318 53T275 186 146 425t-42 310q0 228 75 396t234 261 404 93q250 0 406-93t230-262 73-397m-1006 0q0-132 30-227t95-146 170-51q109 0 173 51t93 146 29 227q0 198-66 313t-227 115q-107 0-172-52t-95-148-30-228M405 1743q0 82 49 120t121 38q69 0 120-38t52-120q0-79-51-117t-121-39q-72 0-121 38t-49 118m479 0q0 82 49 120t123 38q70 0 121-38t52-120q0-79-51-117t-122-39q-73 0-122 38t-50 118" glyph-name="Odieresis" horiz-adv-x="1632" unicode="Ö"/><glyph d="m868 1180 189-183-275-274 271-272-185-185-274 271-270-269-181 187 265 268-267 268 183 189 270-267z" glyph-name="multiply" horiz-adv-x="1200" unicode="×"/><glyph d="M1526 733q0-169-40-307t-127-239-221-153-323-54q-88 0-164 10T508 23l-84-132L231 16l84 125Q206 241 155 392t-51 343q0 228 75 396t234 261 404 93q97 0 180-14t150-41l76 118 190-114-82-125q101-98 148-245t47-331m-416 0q0 62-4 115t-14 96L698 324q25-7 55-11t62-4q109 0 173 51t93 146 29 227m-590 0q0-69 6-129t23-110l403 639q-29 12-63 20t-72 8q-107 0-172-52t-95-148-30-228" glyph-name="Oslash" horiz-adv-x="1632" unicode="Ø"/><glyph d="M1401 1462V582q0-184-70-319T1121 54 770-20q-302 0-461 155T150 573v889h397V604q0-155 58-225t171-70q81 0 132 30t74 97 24 170v856zm-627 437q35-46 83-101t97-107 82-91v-29H776q-42 26-100 66t-121 84-118 86-93 71v21z" glyph-name="Ugrave" horiz-adv-x="1550" unicode="Ù"/><glyph d="M1401 1462V582q0-184-70-319T1121 54 770-20q-302 0-461 155T150 573v889h397V604q0-155 58-225t171-70q81 0 132 30t74 97 24 170v856zm-138 437v-21q-36-29-92-70t-118-86-121-85-101-66H571v29q35 38 84 90t98 108 82 101z" glyph-name="Uacute" horiz-adv-x="1550" unicode="Ú"/><glyph d="M1401 1462V582q0-184-70-319T1121 54 770-20q-302 0-461 155T150 573v889h397V604q0-155 58-225t171-70q81 0 132 30t74 97 24 170v856zm-424 437q32-47 79-103t95-109 82-87v-29H979q-53 31-100 67t-100 83q-54-46-97-81t-98-69H326v29q39 37 87 89t95 107 76 103z" glyph-name="Ucircumflex" horiz-adv-x="1550" unicode="Û"/><glyph d="M1401 1462V582q0-184-70-319T1121 54 770-20q-302 0-461 155T150 573v889h397V604q0-155 58-225t171-70q81 0 132 30t74 97 24 170v856zM364 1743q0 82 49 120t121 38q69 0 120-38t52-120q0-79-51-117t-121-39q-72 0-121 38t-49 118m479 0q0 82 49 120t123 38q70 0 121-38t52-120q0-79-51-117t-122-39q-73 0-122 38t-50 118" glyph-name="Udieresis" horiz-adv-x="1550" unicode="Ü"/><glyph d="m680 920 252 542h428L879 571V0H481v559L0 1462h430zm487 979v-21q-36-29-92-70t-118-86-121-85-101-66H475v29q35 38 84 90t98 108 82 101z" glyph-name="Yacute" horiz-adv-x="1360" unicode="Ý"/><glyph d="M1219 784q0-100-28-192t-93-164-171-114-263-42H553V0H158v1462h395v-213h111q278 0 416-121t139-344M553 594h72q51 0 95 19t72 61 27 108q0 69-39 108t-125 40H553z" glyph-name="Thorn" horiz-adv-x="1284" unicode="Þ"/><glyph d="M1339 1190q0-69-27-122t-67-94-80-71-67-52-27-40q0-25 23-44t70-44 114-68q68-43 112-86t65-100 22-135q0-115-52-194T1273 21t-249-41Q886-20 802-8T653 39v291q34-20 84-38t102-30 93-12q57 0 97 22t40 64q0 23-11 42t-51 45-124 71q-83 44-132 83t-70 83-22 96q0 64 28 108t70 77 83 63 70 64 28 81q0 51-50 85t-140 34q-76 0-125-24t-73-71-24-114V0H135v1100q0 151 79 255t219 158 315 54q172 0 305-41t210-126 76-210" glyph-name="germandbls" horiz-adv-x="1536" unicode="ß"/><glyph d="M688 1153q215 0 336-106t121-304V0H874l-75 150h-8q-48-60-98-97T577-2 418-20q-98 0-176 40T119 141 74 346q0 182 126 270t365 99l189 6v16q0 76-37 108t-101 32q-67 0-149-23t-166-61l-113 258q98 50 222 76t278 26m68-647-90-4q-108-4-151-37t-44-96q0-58 31-85t82-28q71 0 121 45t51 117zM637 1569q35-46 83-101t97-107 82-91v-29H639q-42 26-100 66t-121 84-118 86-93 71v21z" glyph-name="agrave" horiz-adv-x="1276" unicode="à"/><glyph d="M688 1153q215 0 336-106t121-304V0H874l-75 150h-8q-48-60-98-97T577-2 418-20q-98 0-176 40T119 141 74 346q0 182 126 270t365 99l189 6v16q0 76-37 108t-101 32q-67 0-149-23t-166-61l-113 258q98 50 222 76t278 26m68-647-90-4q-108-4-151-37t-44-96q0-58 31-85t82-28q71 0 121 45t51 117zm370 1063v-21q-36-29-92-70t-118-86-121-85-101-66H434v29q35 38 84 90t98 108 82 101z" glyph-name="aacute" horiz-adv-x="1276" unicode="á"/><glyph d="M688 1153q215 0 336-106t121-304V0H874l-75 150h-8q-48-60-98-97T577-2 418-20q-98 0-176 40T119 141 74 346q0 182 126 270t365 99l189 6v16q0 76-37 108t-101 32q-67 0-149-23t-166-61l-113 258q98 50 222 76t278 26m68-647-90-4q-108-4-151-37t-44-96q0-58 31-85t82-28q71 0 121 45t51 117zm83 1063q32-47 79-103t95-109 82-87v-29H841q-53 31-100 67t-100 83q-54-46-97-81t-98-69H188v29q39 37 87 89t95 107 76 103z" glyph-name="acircumflex" horiz-adv-x="1276" unicode="â"/><glyph d="M688 1153q215 0 336-106t121-304V0H874l-75 150h-8q-48-60-98-97T577-2 418-20q-98 0-176 40T119 141 74 346q0 182 126 270t365 99l189 6v16q0 76-37 108t-101 32q-67 0-149-23t-166-61l-113 258q98 50 222 76t278 26m68-647-90-4q-108-4-151-37t-44-96q0-58 31-85t82-28q71 0 121 45t51 117zm-541 731q6 94 25 159t51 105 76 59 100 19q38 0 81-14t87-34 86-33 82-15q18 0 39 17t32 81h183q-13-184-80-263t-166-79q-45 0-90 14t-90 34-85 33-79 15q-19 0-39-16t-33-82z" glyph-name="atilde" horiz-adv-x="1276" unicode="ã"/><glyph d="M688 1153q215 0 336-106t121-304V0H874l-75 150h-8q-48-60-98-97T577-2 418-20q-98 0-176 40T119 141 74 346q0 182 126 270t365 99l189 6v16q0 76-37 108t-101 32q-67 0-149-23t-166-61l-113 258q98 50 222 76t278 26m68-647-90-4q-108-4-151-37t-44-96q0-58 31-85t82-28q71 0 121 45t51 117zm-529 907q0 82 49 120t121 38q69 0 120-38t52-120q0-79-51-117t-121-39q-72 0-121 38t-49 118m479 0q0 82 49 120t123 38q70 0 121-38t52-120q0-79-51-117t-122-39q-73 0-122 38t-50 118" glyph-name="adieresis" horiz-adv-x="1276" unicode="ä"/><glyph d="M688 1153q215 0 336-106t121-304V0H874l-75 150h-8q-48-60-98-97T577-2 418-20q-98 0-176 40T119 141 74 346q0 182 126 270t365 99l189 6v16q0 76-37 108t-101 32q-67 0-149-23t-166-61l-113 258q98 50 222 76t278 26m68-647-90-4q-108-4-151-37t-44-96q0-58 31-85t82-28q71 0 121 45t51 117zm-117 731q-118 0-191 67t-73 185q0 119 73 186t191 68q113 0 192-67t80-185q0-118-79-186t-193-68m0 168q35 0 59 23t25 61q0 38-24 61t-60 23q-35 0-59-23t-25-61q0-37 21-60t63-24" glyph-name="aring" horiz-adv-x="1276" unicode="å"/><glyph d="M1337 1153q144 0 255-57t174-173 63-290V461h-696q5-83 69-143t191-60q78 0 172 18t192 68V63q-82-43-176-63t-240-20q-86 0-165 20t-146 62-119 108Q842 98 780 57T637-2 434-20q-94 0-176 40T125 142 74 352q0 126 62 204t174 116 261 43l183 6v18q0 82-41 110t-95 28q-67 0-150-21t-163-59l-110 256q97 50 213 75t241 25q97 0 182-23t154-71q71 49 153 71t199 23M756 506l-84-4q-115-3-157-42t-42-104q0-55 31-77t82-23q46 0 84 20t62 57 24 85zm559 381q-72 0-120-40t-56-140h340q-1 49-20 90t-55 65-89 25" glyph-name="ae" horiz-adv-x="1915" unicode="æ"/><glyph d="M651-20q-172 0-299 61T156 231 86 561q0 206 77 337t213 193 306 62q104 0 197-23t174-63L938 778q-70 31-130 49t-126 19q-59 0-104-31t-70-93-25-159q0-98 25-158t71-87 105-27q85 0 169 26t161 74V80Q944 34 856 7T651-20m230-232q0-109-75-174t-200-66q-70 0-127 11t-94 24v193q34-11 66-17t67-6q38 0 60 16t22 42q0 35-33 55t-112 35L516 0h195l-19-61q41-9 85-29t74-58 30-104" glyph-name="ccedilla" horiz-adv-x="1104" unicode="ç"/><glyph d="M645 1153q165 0 285-57t185-173 65-288V461H481q5-89 66-146t182-57q106 0 194 21t183 65V63q-82-43-179-63T682-20q-171 0-306 61T164 230 86 559q0 204 70 335t196 195 293 64m14-266q-69 0-115-43t-55-137h336q-1 50-20 91t-55 65-91 24m-28 682q35-46 83-101t97-107 82-91v-29H633q-42 26-100 66t-121 84-118 86-93 71v21z" glyph-name="egrave" horiz-adv-x="1266" unicode="è"/><glyph d="M645 1153q165 0 285-57t185-173 65-288V461H481q5-89 66-146t182-57q106 0 194 21t183 65V63q-82-43-179-63T682-20q-171 0-306 61T164 230 86 559q0 204 70 335t196 195 293 64m14-266q-69 0-115-43t-55-137h336q-1 50-20 91t-55 65-91 24m461 682v-21q-36-29-92-70t-118-86-121-85-101-66H428v29q35 38 84 90t98 108 82 101z" glyph-name="eacute" horiz-adv-x="1266" unicode="é"/><glyph d="M645 1153q165 0 285-57t185-173 65-288V461H481q5-89 66-146t182-57q106 0 194 21t183 65V63q-82-43-179-63T682-20q-171 0-306 61T164 230 86 559q0 204 70 335t196 195 293 64m14-266q-69 0-115-43t-55-137h336q-1 50-20 91t-55 65-91 24m174 682q32-47 79-103t95-109 82-87v-29H835q-53 31-100 67t-100 83q-54-46-97-81t-98-69H182v29q39 37 87 89t95 107 76 103z" glyph-name="ecircumflex" horiz-adv-x="1266" unicode="ê"/><glyph d="M645 1153q165 0 285-57t185-173 65-288V461H481q5-89 66-146t182-57q106 0 194 21t183 65V63q-82-43-179-63T682-20q-171 0-306 61T164 230 86 559q0 204 70 335t196 195 293 64m14-266q-69 0-115-43t-55-137h336q-1 50-20 91t-55 65-91 24m-182 526q0 82 49 120t121 38q69 0 120-38t52-120q0-79-51-117t-121-39q-72 0-121 38t-49 118m479 0q0 82 49 120t123 38q70 0 121-38t52-120q0-79-51-117t-122-39q-73 0-122 38t-50 118" glyph-name="edieresis" horiz-adv-x="1266" unicode="ë"/><glyph d="M528 0H137v1133h391zM332 1569q35-46 83-101t97-107 82-91v-29H334q-42 26-100 66t-121 84-118 86-93 71v21z" glyph-name="igrave" horiz-adv-x="666" unicode="ì"/><glyph d="M528 0H137v1133h391zm293 1569v-21q-36-29-92-70t-118-86-121-85-101-66H129v29q35 38 84 90t98 108 82 101z" glyph-name="iacute" horiz-adv-x="666" unicode="í"/><glyph d="M528 0H137v1133h391zm6 1569q32-47 79-103t95-109 82-87v-29H536q-53 31-100 67t-100 83q-54-46-97-81t-98-69h-258v29q39 37 87 89t95 107 76 103z" glyph-name="icircumflex" horiz-adv-x="666" unicode="î"/><glyph d="M528 0H137v1133h391zM-78 1413q0 82 49 120t121 38q69 0 120-38t52-120q0-79-51-117t-121-39q-72 0-121 38t-49 118m479 0q0 82 49 120t123 38q70 0 121-38t52-120q0-79-51-117t-122-39q-73 0-122 38t-50 118" glyph-name="idieresis" horiz-adv-x="666" unicode="ï"/><glyph d="M479 1573q80-34 145-66t121-69l209 137 115-182-145-97q96-94 161-198t99-231 33-287q0-185-70-320T950 53 649-20q-163 0-289 59T161 213 88 498q0 169 63 284t171 173 245 59q67 0 115-9t80-28 49-47l8 4q-29 56-61 107t-82 100l-182-119-117 184 143 92q-31 20-71 45t-78 48zm174-840q-61 0-97-24t-51-76-16-133q0-73 16-127t52-85 96-30q91 0 127 71t37 216q0 35-10 68t-30 61-51 43-73 16" glyph-name="eth" horiz-adv-x="1313" unicode="ð"/><glyph d="M844 1153q175 0 286-99t111-317V0H850v618q0 113-32 170t-105 58q-111 0-149-90t-38-260V0H135v1133h295l53-150h15q36 54 86 92t115 58 145 20m-582 84q6 94 25 159t51 105 76 59 100 19q38 0 81-14t87-34 86-33 82-15q18 0 39 17t32 81h183q-13-184-80-263t-166-79q-45 0-90 14t-90 34-85 33-79 15q-19 0-39-16t-33-82z" glyph-name="ntilde" horiz-adv-x="1372" unicode="ñ"/><glyph d="M1217 569q0-142-39-252t-113-185T886 19 649-20q-123 0-225 38T245 132 128 317 86 569q0 188 68 318t196 198 305 68q163 0 290-68t199-198 73-318m-734 0q0-97 17-163t54-101 99-35q61 0 97 34t52 101 17 164q0 97-16 162t-53 98-99 33q-89 0-128-74t-40-219m168 1000q35-46 83-101t97-107 82-91v-29H653q-42 26-100 66t-121 84-118 86-93 71v21z" glyph-name="ograve" horiz-adv-x="1305" unicode="ò"/><glyph d="M1217 569q0-142-39-252t-113-185T886 19 649-20q-123 0-225 38T245 132 128 317 86 569q0 188 68 318t196 198 305 68q163 0 290-68t199-198 73-318m-734 0q0-97 17-163t54-101 99-35q61 0 97 34t52 101 17 164q0 97-16 162t-53 98-99 33q-89 0-128-74t-40-219m658 1000v-21q-36-29-92-70t-118-86-121-85-101-66H449v29q35 38 84 90t98 108 82 101z" glyph-name="oacute" horiz-adv-x="1305" unicode="ó"/><glyph d="M1217 569q0-142-39-252t-113-185T886 19 649-20q-123 0-225 38T245 132 128 317 86 569q0 188 68 318t196 198 305 68q163 0 290-68t199-198 73-318m-734 0q0-97 17-163t54-101 99-35q61 0 97 34t52 101 17 164q0 97-16 162t-53 98-99 33q-89 0-128-74t-40-219m371 1000q32-47 79-103t95-109 82-87v-29H856q-53 31-100 67t-100 83q-54-46-97-81t-98-69H203v29q39 37 87 89t95 107 76 103z" glyph-name="ocircumflex" horiz-adv-x="1305" unicode="ô"/><glyph d="M1217 569q0-142-39-252t-113-185T886 19 649-20q-123 0-225 38T245 132 128 317 86 569q0 188 68 318t196 198 305 68q163 0 290-68t199-198 73-318m-734 0q0-97 17-163t54-101 99-35q61 0 97 34t52 101 17 164q0 97-16 162t-53 98-99 33q-89 0-128-74t-40-219m-254 668q6 94 25 159t51 105 76 59 100 19q38 0 81-14t87-34 86-33 82-15q18 0 39 17t32 81h183q-13-184-80-263t-166-79q-45 0-90 14t-90 34-85 33-79 15q-19 0-39-16t-33-82z" glyph-name="otilde" horiz-adv-x="1305" unicode="õ"/><glyph d="M1217 569q0-142-39-252t-113-185T886 19 649-20q-123 0-225 38T245 132 128 317 86 569q0 188 68 318t196 198 305 68q163 0 290-68t199-198 73-318m-734 0q0-97 17-163t54-101 99-35q61 0 97 34t52 101 17 164q0 97-16 162t-53 98-99 33q-89 0-128-74t-40-219m-242 844q0 82 49 120t121 38q69 0 120-38t52-120q0-79-51-117t-121-39q-72 0-121 38t-49 118m479 0q0 82 49 120t123 38q70 0 121-38t52-120q0-79-51-117t-122-39q-73 0-122 38t-50 118" glyph-name="odieresis" horiz-adv-x="1305" unicode="ö"/><glyph d="M92 588v268h1014V588zm506-426q-63 0-109 40t-47 130q0 95 46 132t110 38q62 0 110-37t48-133q0-89-48-129t-110-41m0 780q-63 0-109 40t-47 130q0 95 46 132t110 38q62 0 110-37t48-133q0-89-48-129t-110-41" glyph-name="divide" horiz-adv-x="1200" unicode="÷"/><glyph d="M1274 569q0-189-71-320T998 49 678-20q-61 0-119 9T449 14l-84-131L195-10l79 123q-88 75-138 190T86 569q0 281 159 432t439 152q63 0 122-10t112-29l71 111 168-105-67-104q86-73 135-186t49-261m-813 0q0-43 2-79t10-68l289 448q-19 7-39 10t-43 3q-121 0-170-79t-49-235m438 0q0 37-2 70t-8 61L606 258q17-4 35-6t41-2q83 0 130 36t67 107 20 176" glyph-name="oslash" horiz-adv-x="1362" unicode="ø"/><glyph d="M1237 1133V0H942l-49 141h-23q-35-57-88-92T663-3 528-20q-111 0-200 43T186 158t-53 237v738h391V514q0-110 31-167t104-58q74 0 114 40t57 118 16 190v496zm-553 436q35-46 83-101t97-107 82-91v-29H686q-42 26-100 66t-121 84-118 86-93 71v21z" glyph-name="ugrave" horiz-adv-x="1372" unicode="ù"/><glyph d="M1237 1133V0H942l-49 141h-23q-35-57-88-92T663-3 528-20q-111 0-200 43T186 158t-53 237v738h391V514q0-110 31-167t104-58q74 0 114 40t57 118 16 190v496zm-64 436v-21q-36-29-92-70t-118-86-121-85-101-66H481v29q35 38 84 90t98 108 82 101z" glyph-name="uacute" horiz-adv-x="1372" unicode="ú"/><glyph d="M1237 1133V0H942l-49 141h-23q-35-57-88-92T663-3 528-20q-111 0-200 43T186 158t-53 237v738h391V514q0-110 31-167t104-58q74 0 114 40t57 118 16 190v496zm-350 436q32-47 79-103t95-109 82-87v-29H889q-53 31-100 67t-100 83q-54-46-97-81t-98-69H236v29q39 37 87 89t95 107 76 103z" glyph-name="ucircumflex" horiz-adv-x="1372" unicode="û"/><glyph d="M1237 1133V0H942l-49 141h-23q-35-57-88-92T663-3 528-20q-111 0-200 43T186 158t-53 237v738h391V514q0-110 31-167t104-58q74 0 114 40t57 118 16 190v496zm-963 280q0 82 49 120t121 38q69 0 120-38t52-120q0-79-51-117t-121-39q-72 0-121 38t-49 118m479 0q0 82 49 120t123 38q70 0 121-38t52-120q0-79-51-117t-122-39q-73 0-122 38t-50 118" glyph-name="udieresis" horiz-adv-x="1372" unicode="ü"/><glyph d="M-2 1133h412l192-650q4-14 8-34t7-44 4-45h8q5 41 11 71t13 50l197 652h399L801-72q-52-138-120-231T512-444t-250-48q-54 0-92 5t-68 12v307q22-4 54-8t67-4q65 0 105 26t67 68 45 92l4 10zm1114 436v-21q-36-29-92-70t-118-86-121-85-101-66H420v29q35 38 84 90t98 108 82 101z" glyph-name="yacute" horiz-adv-x="1249" unicode="ý"/><glyph d="M1229 569q0-193-54-324T1027 47 813-20q-70 0-124 18t-94 48-69 63h-14q4-20 7-47t5-55 2-50v-449H135v2048h391v-344q0-82-6-138t-12-87h18q26 46 68 83t100 60 133 23q177 0 289-148t113-436m-398 4q0 134-33 203t-116 70q-85 0-119-61t-37-185v-29q0-135 35-205t127-71q54 0 85 31t44 94 14 153" glyph-name="thorn" horiz-adv-x="1317" unicode="þ"/><glyph d="M-2 1133h412l192-650q4-14 8-34t7-44 4-45h8q5 41 11 71t13 50l197 652h399L801-72q-52-138-120-231T512-444t-250-48q-54 0-92 5t-68 12v307q22-4 54-8t67-4q65 0 105 26t67 68 45 92l4 10zm471 280q0 82 49 120t121 38q69 0 120-38t52-120q0-79-51-117t-121-39q-72 0-121 38t-49 118m479 0q0 82 49 120t123 38q70 0 121-38t52-120q0-79-51-117t-122-39q-73 0-122 38t-50 118" glyph-name="ydieresis" horiz-adv-x="1249" unicode="ÿ"/><glyph d="M74 414v276h876V414z" glyph-name="endash" horiz-adv-x="1024" unicode="–"/><glyph d="M74 414v276h1896V414z" glyph-name="emdash" horiz-adv-x="2048" unicode="—"/><glyph d="m35 877-15 22q19 74 47 176t62 206 68 179h278q-19-93-38-197t-35-204-25-182z" glyph-name="quoteleft" horiz-adv-x="512" unicode="‘"/><glyph d="m477 1460 15-22q-18-74-47-176t-62-206-68-179H37q15 70 29 146t28 154 23 149 18 134z" glyph-name="quoteright" horiz-adv-x="512" unicode="’"/><glyph d="m500 297 15-22q-18-74-47-176t-62-206-68-179H60q15 70 29 146t28 154 23 149 18 134z" glyph-name="quotesinglbase" horiz-adv-x="633" unicode="‚"/><glyph d="M985 1460q-19-93-38-197t-35-204-25-182H545l-15 22q19 74 47 176t62 206 68 179zm-510 0q-19-93-38-197t-35-204-25-182H35l-15 22q19 74 47 176t62 206 68 179z" glyph-name="quotedblleft" horiz-adv-x="1022" unicode="“"/><glyph d="m987 1460 14-22q-18-74-46-176t-62-206-68-179H547q20 93 39 197t34 204 25 182zm-510 0 15-22q-18-74-47-176t-62-206-68-179H37q15 70 29 146t28 154 23 149 18 134z" glyph-name="quotedblright" horiz-adv-x="1022" unicode="”"/><glyph d="m1010 297 14-22q-18-74-46-176t-62-206-68-179H570q20 93 39 197t34 204 25 182zm-510 0 15-22q-18-74-47-176t-62-206-68-179H60q15 70 29 146t28 154 23 149 18 134z" glyph-name="quotedblbase" horiz-adv-x="1143" unicode="„"/><glyph d="M74 748q0 130 43 209t118 115 166 36 165-36 118-115 45-209q0-128-44-207T566 424t-165-37q-92 0-166 37T118 540 74 748" glyph-name="bullet" horiz-adv-x="803" unicode="•"/><glyph d="m74 588 389 483 280-149-272-347 272-348L463 80 74 561z" glyph-name="guilsinglleft" horiz-adv-x="819" unicode="‹"/><glyph d="m358 1071 387-483v-27L358 80 76 227l272 348L76 922z" glyph-name="guilsinglright" horiz-adv-x="819" unicode="›"/></font>
</defs>
</svg>
