<svg xmlns="http://www.w3.org/2000/svg" xmlns:xlink="http://www.w3.org/1999/xlink" width="24" height="24" fill="none"><linearGradient id="a"><stop offset="0" stop-color="#feffff"/><stop offset=".4" stop-color="#feffff"/><stop offset=".51" stop-color="#f9fcfc"/><stop offset=".62" stop-color="#edf3f5"/><stop offset=".7" stop-color="#dee9ec"/><stop offset=".72" stop-color="#d8e4e8"/><stop offset=".76" stop-color="#ccd8df"/><stop offset=".8" stop-color="#c8d5dd"/><stop offset=".83" stop-color="#ccd6de"/><stop offset=".85" stop-color="#d8dbe2"/><stop offset=".88" stop-color="#ede3e9"/><stop offset=".9" stop-color="#ffebef"/></linearGradient><radialGradient xlink:href="#a" id="b" cx="0" cy="0" r="1" gradientTransform="matrix(7.01628 0 0 6.12058 20.353 10.084)" gradientUnits="userSpaceOnUse"/><radialGradient xlink:href="#a" id="c" cx="0" cy="0" r="1" gradientTransform="matrix(.02753 0 0 .02401 3.501 26.208)" gradientUnits="userSpaceOnUse"/><radialGradient xlink:href="#a" id="d" cx="0" cy="0" r="1" gradientTransform="matrix(21.1639 0 0 14.8598 12.076 9.102)" gradientUnits="userSpaceOnUse"/><linearGradient id="e"><stop offset="0" stop-color="#f60"/><stop offset=".5" stop-color="#ff4500"/><stop offset=".7" stop-color="#fc4301"/><stop offset=".82" stop-color="#f43f07"/><stop offset=".92" stop-color="#e53812"/><stop offset="1" stop-color="#d4301f"/></linearGradient><radialGradient xlink:href="#e" id="f" cx="0" cy="0" r="1" gradientTransform="matrix(-1.76825 0 0 -2.59594 16.566 15.17)" gradientUnits="userSpaceOnUse"/><radialGradient xlink:href="#e" id="g" cx="0" cy="0" r="1" gradientTransform="matrix(1.76825 0 0 2.59594 7.372 15.17)" gradientUnits="userSpaceOnUse"/><radialGradient id="h" cx="0" cy="0" r="1" gradientTransform="matrix(6.23511 0 0 4.11251 11.844 20.316)" gradientUnits="userSpaceOnUse"><stop offset="0" stop-color="#172e35"/><stop offset=".29" stop-color="#0e1c21"/><stop offset=".73" stop-color="#030708"/><stop offset="1"/></radialGradient><radialGradient xlink:href="#a" id="i" cx="17.343" cy="1.481" r="5.473" gradientUnits="userSpaceOnUse"/><radialGradient id="j" cx="15.061" cy="7.447" r="4.486" gradientUnits="userSpaceOnUse"><stop offset=".48" stop-color="#7a9299"/><stop offset=".67" stop-color="#172e35"/><stop offset=".75"/><stop offset=".82" stop-color="#172e35"/></radialGradient><path fill="url('#b')" d="M20.499 15.47a3.501 3.501 0 1 0 0-7.002 3.501 3.501 0 0 0 0 7.002"/><path fill="url('#c')" d="M3.501 15.47a3.501 3.501 0 1 0 0-7.002 3.501 3.501 0 0 0 0 7.002"/><path fill="url('#d')" d="M12.008 22.473c5.52 0 9.995-3.356 9.995-7.496s-4.475-7.496-9.995-7.496-9.995 3.356-9.995 7.496 4.475 7.496 9.995 7.496"/><path fill="#842123" d="M9.053 14.249c-.059 1.27-.902 1.73-1.882 1.73s-1.73-.65-1.672-1.92c.059-1.269.902-2.11 1.883-2.11s1.73 1.03 1.671 2.3M18.517 14.059c.059 1.27-.69 1.92-1.671 1.92s-1.825-.46-1.883-1.732c-.058-1.27.69-2.299 1.672-2.299.981 0 1.825.84 1.882 2.11"/><path fill="url('#f')" d="M14.963 14.359c.055 1.188.844 1.62 1.762 1.62s1.619-.646 1.564-1.835-.844-1.966-1.762-1.966-1.619.992-1.564 2.18"/><path fill="url('#g')" d="M9.054 14.359c-.055 1.188-.843 1.62-1.761 1.62-.919 0-1.62-.646-1.564-1.835.055-1.189.843-1.966 1.762-1.966.918 0 1.618.992 1.563 2.18"/><path fill="#bbcfda" d="M12.008 16.827c-1.239 0-2.427.06-3.525.168a.277.277 0 0 0-.235.38c.615 1.443 2.067 2.456 3.76 2.456s3.144-1.013 3.76-2.455a.277.277 0 0 0-.234-.38 36 36 0 0 0-3.526-.17"/><path fill="#fff" d="M12.008 17.102c-1.235 0-2.42.06-3.515.172a.28.28 0 0 0-.233.387 4.062 4.062 0 0 0 7.495 0 .28.28 0 0 0-.233-.387 35 35 0 0 0-3.515-.172z"/><path fill="url('#h')" d="M12.008 16.959c-1.216 0-2.381.06-3.46.169a.277.277 0 0 0-.23.38 4 4 0 0 0 7.38 0 .277.277 0 0 0-.23-.38 35 35 0 0 0-3.46-.17"/><path fill="url('#i')" d="M17.483 6.462a2.48 2.48 0 1 0 0-4.962 2.48 2.48 0 0 0 0 4.962"/><path fill="url('#j')" d="M11.973 7.797c-.298 0-.538-.124-.538-.316a4.035 4.035 0 0 1 4.03-4.03.538.538 0 0 1 0 1.074 2.96 2.96 0 0 0-2.954 2.956c0 .192-.242.316-.538.316"/><path fill="#ff6101" d="M8.4 14.947c0 .46-.489.666-1.092.666s-1.093-.206-1.093-.666.49-.833 1.093-.833 1.093.372 1.093.833M17.803 14.947c0 .46-.49.666-1.093.666s-1.093-.206-1.093-.666.49-.833 1.093-.833 1.093.372 1.093.833"/><g fill="#ffc49c"><path d="M8.062 13.698c.215 0 .389-.19.389-.424s-.174-.424-.389-.424-.389.19-.389.424.174.424.39.424M17.305 13.698c.215 0 .389-.19.389-.424s-.174-.424-.39-.424-.388.19-.388.424.174.424.389.424"/></g></svg>