<svg xmlns="http://www.w3.org/2000/svg" width="2048" height="2048" version="1.0" viewBox="0 0 1536 1536"><path d="M84.6 3.1C65.4 9.5 50.3 18.7 36 33 17 51.8 4.7 76 1 101.6.2 107.4 0 286.8.2 770l.3 660.5 2.7 9.7c13 47 47.9 79.9 95.8 90.4 8.2 1.8 28.9 1.9 668 1.9 627.7 0 659.9-.1 668.2-1.8 45-9.1 80.5-40.5 94.3-83.2 5.9-18.4 5.5 35.1 5.3-686.5l-.3-661.5-2.7-9.8c-11.6-42.1-41.2-73.4-81.7-86.7l-9.3-3-673.6.1H93.5zM942 291.9c59.4 2.5 97.6 5.3 128 9.7 59.7 8.5 108.2 24 140.3 45 31.3 20.4 54.1 56.3 65.6 103.6 7.5 30.8 9.3 48.7 9.8 101l.5 43.8H1019v-6.9c0-18-3.6-40.3-8-49.9-4-8.5-13.2-18-22.1-22.7-14.6-7.7-29-9.8-79.9-11.7-45.8-1.6-263-1.7-298 0-49.1 2.3-74.9 5-86.2 9-16 5.7-26.5 17.7-32 36.7-1.9 6.9-2.2 10.3-2.2 25-.1 18.5 1.1 24.8 6.2 35.5 6 12.1 19.1 22.1 33.5 25.5 23.3 5.4 108.4 10.5 258.2 15.5 105.6 3.5 121.3 4 157 5.6 139 5.9 189.5 11.8 239.9 28.1 69.5 22.4 108.1 66.5 123.6 141 7.9 37.8 11 87.3 9 140.7-4.1 110.4-22.4 168.8-65.7 210.7-24 23.2-59.8 41.3-96.1 48.8-61.9 12.8-194.4 19.1-400.2 19.1-230.9 0-333.6-8.1-406.2-32-35.3-11.6-57.3-24.4-78.3-45.4-29.7-29.7-44.1-61.8-50.5-112.1-3.1-25-4-41.7-4.7-88.3l-.6-43.2h266l.6 14.7c1.8 41.6 12.1 66 32.4 76.6 14.6 7.5 29.7 10.6 64.3 12.8 40.7 2.6 358.9 2.6 387 0 40.8-3.8 60.9-9.5 70.1-19.9 10-11.2 14.7-27.4 15.6-53.7 1.3-38.4-6.8-56.3-29.6-65.5-20.2-8.2-40-10.5-104.1-12-49.2-1.1-75.5-2.2-198-8-98.8-4.7-164.3-7.6-205.5-9-68.1-2.4-107-6.7-145.5-16.1-26.9-6.6-43.6-13.7-63.1-26.7-35.1-23.5-59.4-60.8-71.3-109.3-14.5-59.8-15.1-163-1.1-232.4 15.2-76 47.6-121.9 105-149.1 30-14.1 62-22.3 105.5-26.8 39.6-4.1 121.1-7.6 213.5-9 44.3-.7 260.2.3 284.5 1.3"/></svg>