<svg xmlns="http://www.w3.org/2000/svg" width="24" height="24" fill="none"><clipPath id="a"><path d="M0 0h24v24H0z"/></clipPath><g clip-path="url('#a')"><path fill="#191414" d="M12 .375C5.376.375 0 5.583 0 12s5.376 11.625 12 11.625S24 18.417 24 12 18.624.375 12 .375m4.873 17.105c-.204 0-.33-.061-.518-.17-3.02-1.762-6.532-1.837-10.002-1.147-.188.046-.435.121-.576.121a.74.74 0 0 1-.764-.74c0-.483.295-.713.658-.788 3.963-.848 8.013-.773 11.468 1.228.295.183.47.347.47.774s-.345.722-.736.722m1.301-3.075c-.251 0-.42-.108-.595-.197-3.024-1.735-7.534-2.433-11.545-1.378-.232.06-.358.122-.576.122-.518 0-.939-.408-.939-.91 0-.501.252-.834.75-.97a16.8 16.8 0 0 1 4.733-.638c3.14 0 6.174.755 8.564 2.133.392.225.547.516.547.924a.923.923 0 0 1-.939.914m1.5-3.572c-.251 0-.406-.061-.624-.183-3.445-1.992-9.605-2.47-13.592-1.392-.174.047-.392.122-.624.122-.639 0-1.128-.483-1.128-1.107 0-.637.407-.998.842-1.12 1.704-.483 3.61-.712 5.686-.712 3.532 0 7.234.712 9.939 2.24.377.211.624.502.624 1.06 0 .637-.532 1.092-1.123 1.092"/></g></svg>