<?xml version="1.0" encoding="UTF-8" standalone="no"?>
<!DOCTYPE svg PUBLIC "-//W3C//DTD SVG 20010904//EN" "http://www.w3.org/TR/2001/REC-SVG-20010904/DTD/svg10.dtd">
<svg version="1.0" xmlns="http://www.w3.org/2000/svg" width="1536.000000pt" height="1536.000000pt" viewBox="0 0 1536.000000 1536.000000" preserveAspectRatio="xMidYMid meet">
<metadata>
Created by potrace 1.11, written by Peter Selinger 2001-2013
</metadata>
<g transform="translate(0.000000,1536.000000) scale(0.100000,-0.100000)" fill="#000000" stroke="none">
<path d="M846 15329 c-192 -64 -343 -156 -486 -299 -190 -188 -313 -430 -350 -686 -8 -58 -10 -1852 -8 -6684 l3 -6605 27 -97 c130 -470 479 -799 958 -904 82 -18 289 -19 6680 -19 6277 0 6599 1 6682 18 450 91 805 405 943 832 59 184 55 -351 53 6865 l-3 6615 -27 98 c-116 421 -412 734 -817 867 l-93 30 -6736 -1 -6737 0 -89 -30z m8574 -2888 c594 -25 976 -53 1280 -97 597 -85 1082 -240 1403 -450 313 -204 541 -563 656 -1036 75 -308 93 -487 98 -1010 l5 -438 -1336 0 -1336 0 0 69 c0 180 -36 403 -80 499 -40 85 -132 180 -221 227 -146 77 -290 98 -799 117 -458 16 -2630 17 -2980 0 -491 -23 -749 -50 -862 -90 -160 -57 -265 -177 -320 -367 -19 -69 -22 -103 -22 -250 -1 -185 11 -248 62 -355 60 -121 191 -221 335 -255 233 -54 1084 -105 2582 -155 1056 -35 1213 -40 1570 -56 1390 -59 1895 -118 2399 -281 695 -224 1081 -665 1236 -1410 79 -378 110 -873 90 -1407 -41 -1104 -224 -1688 -657 -2107 -240 -232 -598 -413 -961 -488 -619 -128 -1944 -191 -4002 -191 -2309 0 -3336 81 -4062 320 -353 116 -573 244 -783 454 -297 297 -441 618 -505 1121 -31 250 -40 417 -47 883 l-6 432 1330 0 1330 0 6 -147 c18 -416 121 -660 324 -766 146 -75 297 -106 643 -128 407 -26 3589 -26 3870 0 408 38 609 95 701 199 100 112 147 274 156 537 13 384 -68 563 -296 655 -202 82 -400 105 -1041 120 -492 11 -755 22 -1980 80 -988 47 -1643 76 -2055 90 -681 24 -1070 67 -1455 161 -269 66 -436 137 -631 267 -351 235 -594 608 -713 1093 -145 598 -151 1630 -11 2324 152 760 476 1219 1050 1491 300 141 620 223 1055 268 396 41 1211 76 2135 90 443 7 2602 -3 2845 -13z"/>
</g>
</svg>